<svg width="60" height="60" viewBox="0 0 60 60" fill="none" xmlns="http://www.w3.org/2000/svg">
<path d="M58.04 11.8856C57.7957 10.2523 56.9742 8.76048 55.7245 7.68072C54.4749 6.60096 52.8797 6.00469 51.2281 6H8.81188C7.16034 6.00469 5.56514 6.60096 4.31546 7.68072C3.06577 8.76048 2.24432 10.2523 2 11.8856L30.02 30.0169L58.04 11.8856Z" fill="#2879FE"/>
<path d="M31.0181 35.3248C30.7148 35.521 30.3612 35.6253 30 35.6253C29.6388 35.6253 29.2852 35.521 28.9819 35.3248L1.875 17.7861V45.5829C1.87699 47.4168 2.60636 49.175 3.9031 50.4717C5.19983 51.7684 6.95802 52.4978 8.79188 52.4998H51.2081C53.042 52.4978 54.8002 51.7684 56.0969 50.4717C57.3936 49.175 58.123 47.4168 58.125 45.5829V17.7842L31.0181 35.3248Z" fill="#2879FE"/>
</svg>
