<svg width="58" height="58" viewBox="0 0 58 58" fill="none" xmlns="http://www.w3.org/2000/svg">
<path d="M55.3156 41.375C55.1619 41.2531 44 33.2075 40.9362 33.785C39.4737 34.0438 38.6375 35.0413 36.9594 37.0381C36.6894 37.3606 36.0406 38.1331 35.5363 38.6825C34.4757 38.3366 33.4412 37.9155 32.4406 37.4225C27.276 34.9081 23.1031 30.7353 20.5887 25.5706C20.0954 24.5702 19.6743 23.5356 19.3288 22.475C19.88 21.9688 20.6525 21.32 20.9825 21.0425C22.97 19.3737 23.9694 18.5375 24.2281 17.0712C24.7587 14.0337 16.7187 2.795 16.6344 2.69375C16.2696 2.17263 15.7935 1.73912 15.2406 1.42457C14.6877 1.11002 14.0718 0.922303 13.4375 0.875C10.1788 0.875 0.875 12.9444 0.875 14.9769C0.875 15.095 1.04563 27.1025 15.8525 42.1644C30.8994 56.9544 42.905 57.125 43.0231 57.125C45.0575 57.125 57.125 47.8212 57.125 44.5625C57.0782 43.9304 56.8916 43.3165 56.5787 42.7653C56.2658 42.2141 55.8344 41.7392 55.3156 41.375Z" fill="#2879FE"/>
</svg>
