<svg width="62" height="62" viewBox="0 0 62 62" fill="none" xmlns="http://www.w3.org/2000/svg">
<path d="M39.2481 39.2501V61.9376H22.7481V39.2501C22.7487 38.7033 22.9662 38.1791 23.3529 37.7924C23.7395 37.4058 24.2638 37.1883 24.8106 37.1876H37.1856C37.7324 37.1883 38.2566 37.4058 38.6432 37.7924C39.0299 38.1791 39.2474 38.7033 39.2481 39.2501ZM60.4506 27.2051L35.8243 2.08386C34.5288 0.833522 32.7986 0.134766 30.9981 0.134766C29.1976 0.134766 27.4673 0.833522 26.1718 2.08386L1.54556 27.2051C0.824274 27.9245 0.336228 28.8443 0.144943 29.8449C-0.0463431 30.8454 0.06799 31.8804 0.473061 32.8151C0.842573 33.7472 1.48566 34.5456 2.31768 35.1052C3.1497 35.6648 4.13166 35.9594 5.13431 35.9501L5.25806 55.0489C5.24971 56.8642 5.96149 58.6087 7.23735 59.9C8.51322 61.1913 10.2491 61.9241 12.0643 61.9376H18.6231V39.2501C18.6249 37.6097 19.2774 36.0369 20.4374 34.8769C21.5974 33.717 23.1701 33.0645 24.8106 33.0626H37.1856C38.826 33.0645 40.3988 33.717 41.5587 34.8769C42.7187 36.0369 43.3712 37.6097 43.3731 39.2501V61.9376H49.9318C51.7471 61.9241 53.4829 61.1913 54.7588 59.9C56.0346 58.6087 56.7464 56.8642 56.7381 55.0489V35.9501H56.8618C57.8645 35.9594 58.8464 35.6648 59.6784 35.1052C60.5105 34.5456 61.1535 33.7472 61.5231 32.8151C61.9281 31.8804 62.0425 30.8454 61.8512 29.8449C61.6599 28.8443 61.1718 27.9245 60.4506 27.2051Z" fill="#2879FE"/>
</svg>
