<svg width="58" height="58" viewBox="0 0 58 58" fill="none" xmlns="http://www.w3.org/2000/svg">
<path d="M29 0C17.7509 0 8.60938 9.1418 8.60938 20.3906C8.60938 24.1969 9.66312 27.9013 11.6681 31.0958L27.6177 57.1974C27.8898 57.6392 28.2977 57.9112 28.7736 57.9792C29.419 58.081 30.133 57.8092 30.5068 57.1635L46.5021 30.8238C48.405 27.6974 49.3906 24.0611 49.3906 20.3906C49.3906 9.1418 40.2491 0 29 0ZM29 30.5859C23.2909 30.5859 18.8047 25.9641 18.8047 20.3906C18.8047 14.7831 23.3925 10.1953 29 10.1953C34.6075 10.1953 39.1953 14.7831 39.1953 20.3906C39.1953 25.9301 34.7772 30.5859 29 30.5859Z" fill="#2879FE"/>
<path d="M29 0V10.1953C34.6075 10.1953 39.1953 14.7831 39.1953 20.3906C39.1953 25.9301 34.7772 30.5859 29 30.5859V56.1906C29 57.1961 30.003 58.0338 30.5066 57.1635L46.502 30.8238C48.405 27.6974 49.3906 24.0611 49.3906 20.3906C49.3906 9.1418 40.2491 0 29 0Z" fill="#2879FE"/>
</svg>
