<svg width="16" height="21" viewBox="0 0 16 21" fill="none" xmlns="http://www.w3.org/2000/svg">
<g clip-path="url(#clip0_700_209)">
<path d="M14.1761 8.6178C13.1182 7.38301 11.3578 6.30686 9.66517 6.3626C7.68051 6.4312 6.00476 6.79992 4.73949 7.89322H4.68024V0H0V20.6613H4.67601V19.658H4.73525C5.7424 20.4341 7.10077 21 8.96694 21C11.0278 21 12.9193 20.404 14.1508 18.9978C15.3864 17.5915 15.9958 16.2581 15.9958 13.93C15.9958 11.7862 15.2256 9.85259 14.1719 8.6178H14.1761ZM10.1687 16.3224C9.52552 16.9741 8.75535 17.2999 7.84977 17.2999C6.94419 17.2999 6.20365 16.9741 5.5689 16.3224C4.93838 15.6707 4.621 14.8818 4.621 13.9557C4.621 13.0296 4.93838 12.2407 5.5689 11.589C6.19942 10.9373 6.96112 10.6115 7.84977 10.6115C8.73843 10.6115 9.52129 10.9373 10.1687 11.589C10.812 12.2407 11.1336 13.0296 11.1336 13.9557C11.1336 14.8818 10.812 15.6707 10.1687 16.3224V16.3224Z" fill="white"/>
</g>
<defs>
<clipPath id="clip0_700_209">
<rect width="16" height="21" fill="white"/>
</clipPath>
</defs>
</svg>
